<?xml version="1.0" encoding="UTF-8"?>
<svg width="22px" height="21px" viewBox="0 0 22 21" version="1.1" xmlns="http://www.w3.org/2000/svg" xmlns:xlink="http://www.w3.org/1999/xlink">
    <!-- Generator: Sketch 58 (84663) - https://sketch.com -->
    <title>Path</title>
    <desc>Created with Sketch.</desc>
    <g id="Landing-Page---We-Were-Soldiers" stroke="none" stroke-width="1" fill="none" fill-rule="evenodd">
        <g id="Home" transform="translate(-992.000000, -791.000000)" fill-rule="nonzero" stroke="#FFCC33" stroke-width="0.799999952">
            <g id="Group-6" transform="translate(918.000000, 786.000000)">
                <g id="ant-design:star-filled-copy-3" transform="translate(75.000000, 0.000000)">
                    <path d="M19.3535787,12.6904401 L13.3579676,11.823597 L10.6777713,6.41816066 C10.6045677,6.27016305 10.484136,6.15035547 10.3353674,6.07753125 C9.96226513,5.89429612 9.50887509,6.04699206 9.32232398,6.41816066 L6.64212762,11.823597 L0.64651657,12.6904401 C0.481218116,12.7139318 0.330088102,12.7914543 0.214379184,12.9089127 C-0.0769027007,13.2067475 -0.0705614546,13.6830304 0.228547623,13.973086 L4.56645133,18.1804464 L3.54160091,24.1214931 C3.49257158,24.4034341 3.60894454,24.6885805 3.84166124,24.8567251 C4.07437794,25.0248697 4.3829495,25.046758 4.63729352,24.9131628 L10.0000476,22.1082559 L15.3628018,24.9131628 C15.509209,24.9906854 15.6792302,25.0165262 15.8421673,24.9883362 C16.253052,24.9178612 16.5293366,24.5302484 16.4584944,24.1214931 L15.4336439,18.1804464 L19.7715476,13.973086 C19.889618,13.8579767 19.9675444,13.70763 19.9911585,13.5431882 C20.0549164,13.1320837 19.7668248,12.7515184 19.3535787,12.6904401 Z" id="Path"></path>
                </g>
            </g>
        </g>
    </g>
</svg>