<?xml version="1.0" encoding="UTF-8"?>
<svg width="10px" height="17px" viewBox="0 0 10 17" version="1.1" xmlns="http://www.w3.org/2000/svg" xmlns:xlink="http://www.w3.org/1999/xlink">
    <!-- Generator: Sketch 58 (84663) - https://sketch.com -->
    <title>facebook - FontAwesome</title>
    <desc>Created with Sketch.</desc>
    <g id="Landing-Page---We-Were-Soldiers" stroke="none" stroke-width="1" fill="none" fill-rule="evenodd">
        <g id="Log-In" transform="translate(-625.000000, -660.000000)" stroke="#FFFFFF" stroke-width="0.879999967">
            <g id="icons" transform="translate(626.000000, 660.000000)">
                <path d="M7.9199997,0.987884578 L7.9199997,3.36134603 L6.48083309,3.36134603 C5.95527492,3.36134603 5.60083404,3.46922956 5.41749979,3.68499986 C5.23416555,3.90077016 5.1424998,4.22442076 5.1424998,4.65596136 L5.1424998,6.35514399 L7.82833304,6.35514399 L7.47083305,9.01629773 L5.1424998,9.01629773 L5.1424998,15.8399994 L2.33749991,15.8399994 L2.33749991,9.01629773 L0,9.01629773 L0,6.35514399 L2.33749991,6.35514399 L2.33749991,4.39524022 C2.33749991,3.28042699 2.6552745,2.41586035 3.29083321,1.80151435 C3.92639192,1.18716836 4.77277231,0.879999967 5.82999978,0.879999967 C6.72833757,0.879999967 7.42499724,0.915961144 7.9199997,0.987884578 Z" id="facebook---FontAwesome"></path>
            </g>
        </g>
    </g>
</svg>