<?xml version="1.0" encoding="UTF-8"?>
<svg width="18px" height="17px" viewBox="0 0 18 17" version="1.1" xmlns="http://www.w3.org/2000/svg" xmlns:xlink="http://www.w3.org/1999/xlink">
    <!-- Generator: Sketch 58 (84663) - https://sketch.com -->
    <title>social-instagram - simple-line-icons</title>
    <desc>Created with Sketch.</desc>
    <g id="Landing-Page---We-Were-Soldiers" stroke="none" stroke-width="1" fill="none" fill-rule="evenodd">
        <g id="Log-In" transform="translate(-680.000000, -660.000000)" fill="#FFFFFF">
            <g id="icons" transform="translate(626.000000, 660.000000)">
                <path d="M59.473765,0.0494674537 C60.3641836,0.0164889864 61.5129163,0 62.9199976,0 C64.3270789,0 65.4758116,0.0164889864 66.3662302,0.0494674537 C67.124735,0.0824459211 67.8007834,0.214357812 68.3943958,0.445207084 C68.9660226,0.665063533 69.4606922,0.983850603 69.8784194,1.40157786 C70.2961467,1.81930511 70.6149338,2.3139747 70.8347902,2.88560147 C71.0656395,3.47921388 71.1975514,4.15526232 71.2305298,4.91376707 C71.2635083,5.80418569 71.2799973,6.95291841 71.2799973,8.35999968 C71.2799973,9.76708096 71.2635083,10.9158137 71.2305298,11.8062323 C71.1975514,12.564737 71.0656395,13.2407855 70.8347902,13.8343979 C70.6149338,14.4060247 70.2961467,14.9006943 69.8784194,15.3184215 C69.4606922,15.7361488 68.9660226,16.0549358 68.3943958,16.2747923 C67.8007834,16.5056416 67.124735,16.6375534 66.3662302,16.6705319 C65.4758116,16.7035104 64.3270789,16.7199994 62.9199976,16.7199994 C61.5129163,16.7199994 60.3641836,16.7035104 59.473765,16.6705319 C58.7152603,16.6375534 58.0392118,16.5056416 57.4455994,16.2747923 C56.8739726,16.0549358 56.379303,15.7361488 55.9615758,15.3184215 C55.5438485,14.9006943 55.2250615,14.4060247 55.005205,13.8343979 C54.7743557,13.2407855 54.6424439,12.564737 54.6094654,11.8062323 C54.5764869,10.9158137 54.5599979,9.76708096 54.5599979,8.35999968 C54.5599979,6.95291841 54.5764869,5.80418569 54.6094654,4.91376707 C54.6424439,4.15526232 54.7743557,3.47921388 55.005205,2.88560147 C55.2250615,2.3139747 55.5438485,1.81930511 55.9615758,1.40157786 C56.379303,0.983850603 56.8739726,0.665063533 57.4455994,0.445207084 C58.0392118,0.214357812 58.7152603,0.0824459211 59.473765,0.0494674537 Z M66.4981434,1.13775144 C65.5747463,1.10477297 64.382043,1.08828398 62.9199976,1.08828398 C61.4579522,1.08828398 60.2652489,1.10477297 59.3418518,1.13775144 C58.7482394,1.15973708 58.1986065,1.26416733 57.6929367,1.45104531 C56.9014535,1.78082998 56.3408279,2.34145552 56.0110432,3.13293874 C55.8241653,3.63860857 55.719735,4.18824145 55.6977494,4.78185386 C55.6647709,5.70525095 55.6482819,6.8979543 55.6482819,8.35999968 C55.6482819,9.82204507 55.6647709,11.0147484 55.6977494,11.9381455 C55.719735,12.5317579 55.8241653,13.0813908 56.0110432,13.5870606 C56.3408279,14.3785438 56.9014535,14.9391694 57.6929367,15.2689541 C58.1986065,15.455832 58.7482394,15.5602623 59.3418518,15.5822479 C60.2652489,15.6152264 61.4579522,15.6317154 62.9199976,15.6317154 C64.382043,15.6317154 65.5747463,15.6152264 66.4981434,15.5822479 C67.0917558,15.5602623 67.6413887,15.455832 68.1470586,15.2689541 C68.9385418,14.9391694 69.4991673,14.3785438 69.828952,13.5870606 C70.01583,13.0813908 70.1202602,12.5317579 70.1422459,11.9381455 C70.1752243,11.0147484 70.1917133,9.82204507 70.1917133,8.35999968 C70.1917133,6.8979543 70.1752243,5.70525095 70.1422459,4.78185386 C70.1202602,4.18824145 70.01583,3.63860857 69.828952,3.13293874 C69.4991673,2.34145552 68.9385418,1.78082998 68.1470586,1.45104531 C67.6413887,1.26416733 67.0917558,1.15973708 66.4981434,1.13775144 Z M60.5455598,10.7344375 C61.2051292,11.383014 61.9966005,11.7072974 62.9199976,11.7072974 C63.8433947,11.7072974 64.6321179,11.3802658 65.2861908,10.7261929 C65.9402638,10.07212 66.2672953,9.28339677 66.2672953,8.35999968 C66.2672953,7.4366026 65.9402638,6.64787942 65.2861908,5.99380648 C64.6321179,5.33973354 63.8433947,5.01270198 62.9199976,5.01270198 C61.9966005,5.01270198 61.2078773,5.33973354 60.5538044,5.99380648 C59.8997315,6.64787942 59.5726999,7.4366026 59.5726999,8.35999968 C59.5726999,9.28339677 59.8969833,10.0748681 60.5455598,10.7344375 Z M59.8859938,5.32599585 C60.7214483,4.49054135 61.7327728,4.07282036 62.9199976,4.07282036 C64.1072224,4.07282036 65.1185469,4.49054135 65.9540014,5.32599585 C66.789456,6.16145036 67.2071769,7.17277486 67.2071769,8.35999968 C67.2071769,9.54722451 66.789456,10.558549 65.9540014,11.3940035 C65.1185469,12.229458 64.1072224,12.647179 62.9199976,12.647179 C61.7327728,12.647179 60.7214483,12.229458 59.8859938,11.3940035 C59.0505393,10.558549 58.6328183,9.54722451 58.6328183,8.35999968 C58.6328183,7.17277486 59.0505393,6.16145036 59.8859938,5.32599585 Z M68.081102,3.19889534 C68.2899656,3.39676615 68.3943958,3.63310828 68.3943958,3.90792885 C68.3943958,4.18274941 68.2954619,4.41634338 68.0975911,4.60871777 C67.8997203,4.80109217 67.6578818,4.89727792 67.3720685,4.89727792 C67.0972479,4.89727792 66.8636539,4.80109217 66.6712795,4.60871777 C66.4789051,4.41634338 66.3827194,4.18274941 66.3827194,3.90792885 C66.3827194,3.62211546 66.4789051,3.380277 66.6712795,3.18240619 C66.8636539,2.98453539 67.0972479,2.88560147 67.3720685,2.88560147 C67.646889,2.88560147 67.8832311,2.99003172 68.081102,3.19889534 Z" id="social-instagram---simple-line-icons"></path>
            </g>
        </g>
    </g>
</svg>