<?xml version="1.0" encoding="UTF-8"?>
<svg width="335px" height="723px" viewBox="0 0 335 723" version="1.1" xmlns="http://www.w3.org/2000/svg" xmlns:xlink="http://www.w3.org/1999/xlink">
    <!-- Generator: Sketch 58 (84663) - https://sketch.com -->
    <title>cinema </title>
    <desc>Created with Sketch.</desc>
    <g id="Landing-Page---We-Were-Soldiers" stroke="none" stroke-width="1" fill="none" fill-rule="evenodd" opacity="0.471214658">
        <g id="Log-In" transform="translate(-1105.000000, 0.000000)" fill="#999999" fill-rule="nonzero">
            <g id="cinema-" transform="translate(1105.000000, 0.000000)">
                <path d="M151.740006,722.520029 L360.720014,0 L321.480013,0 L327.600013,1.80000007 C329.429677,2.30107121 330.97866,3.52131065 331.894179,5.18280696 C332.809697,6.84430326 333.013804,8.80559698 332.460013,10.6200004 L298.080012,129.780005 C296.950323,133.528555 293.032376,135.687424 289.260011,134.640005 L208.440008,111.240004 C204.691458,110.110316 202.53259,106.192369 203.580008,102.420004 L233.100009,0 L228.420009,0 L226.800009,6.12000024 C226.367411,7.48359628 224.946322,8.27309031 223.560009,7.92000031 L216.540009,5.76000023 C215.259502,5.33329174 214.490818,4.02653034 214.740009,2.70000011 L215.640009,0 L208.800008,0 L0,722.520029 L6.66000026,722.520029 L7.5600003,719.280029 C8.06379157,717.988173 9.46424108,717.287948 10.8000004,717.660029 L17.8200007,719.640029 C19.0739459,719.990827 19.8541582,721.239166 19.6200008,722.520029 L24.300001,722.520029 L35.1000014,685.080027 C36.2296898,681.331477 40.1476369,679.172608 43.9200017,680.220027 L124.740005,703.620028 C128.488555,704.749716 130.647424,708.667663 129.600005,712.440028 L126.720005,722.520029 L138.780006,722.520029 L135.540005,721.620029 C134.888715,721.414868 134.348562,720.954189 134.043186,720.343438 C133.737811,719.732688 133.693359,719.024157 133.920005,718.380029 L136.620005,709.020028 C136.785619,708.335681 137.229988,707.751831 137.845484,707.409889 C138.460979,707.067947 139.191462,706.999102 139.860006,707.220028 L146.700006,709.200028 C147.384353,709.365642 147.968203,709.810011 148.310145,710.425506 C148.652087,711.041002 148.720932,711.771485 148.5,712.440028 L145.800006,721.800029 C145.800006,722.08331 145.666631,722.35006 145.440006,722.520029 L151.740006,722.520029 Z M41.2200016,663.840026 L75.780003,544.680022 C76.9096914,540.931472 80.8276385,538.772603 84.6000034,539.820021 L165.420007,563.220022 C169.168557,564.349711 171.327425,568.267658 170.280007,572.040023 L135.720005,691.200027 C134.590317,694.948577 130.67237,697.107446 126.900005,696.060028 L46.0800018,672.840027 C42.3066504,671.631111 40.1613049,667.658248 41.2200016,663.840026 Z M210.780008,431.640017 L176.400007,550.980022 C175.270319,554.728572 171.352372,556.887441 167.580007,555.840022 L86.7600034,532.440021 C84.9303391,531.93895 83.3813561,530.718711 82.4658377,529.057214 C81.5503194,527.395718 81.3462127,525.434424 81.9000033,523.620021 L116.280005,404.280016 C117.409693,400.531466 121.32764,398.372597 125.100005,399.420016 L205.920008,422.820017 C209.668558,423.949705 211.827427,427.867652 210.780008,431.640017 Z M208.080008,415.440017 L127.260005,392.040016 C123.511455,390.910327 121.352586,386.99238 122.400005,383.220015 L156.780006,264.06001 C157.909695,260.311461 161.827642,258.152592 165.600007,259.20001 L246.60001,282.420011 C250.34856,283.5497 252.507429,287.467647 251.46001,291.240012 L216.900009,410.580016 C215.77032,414.328566 211.852373,416.487435 208.080008,415.440017 Z M17.1000007,695.520028 L24.120001,697.500028 C25.483597,697.932626 26.273091,699.353715 25.920001,700.740028 L23.2200009,710.280028 C23.0148407,710.931319 22.554161,711.471472 21.9434104,711.776847 C21.3326598,712.082223 20.6241295,712.126675 19.9800008,711.900028 L12.9600005,709.920028 C12.321529,709.756258 11.7817383,709.330804 11.4733344,708.748263 C11.1649305,708.165722 11.1165186,707.480127 11.3400005,706.860028 L14.0400006,697.320028 C14.3925152,695.981435 15.7587489,695.177768 17.1000007,695.520028 L17.1000007,695.520028 Z M23.5800009,673.560027 L30.6000012,675.540027 C31.251292,675.745187 31.791445,676.205867 32.0968203,676.816617 C32.4021956,677.427368 32.4466476,678.135898 32.2200013,678.780027 L29.5200012,688.140027 C29.3543873,688.824374 28.9100183,689.408225 28.2945229,689.750167 C27.6790275,690.092109 26.9485446,690.160954 26.280001,689.940027 L19.4400008,687.960027 C18.7556537,687.794413 18.1718034,687.350044 17.8298615,686.734549 C17.4879196,686.119054 17.4190745,685.388571 17.6400007,684.720027 L20.3400008,675.360027 C20.5056147,674.67568 20.9499837,674.091829 21.5654791,673.749888 C22.1809745,673.407946 22.9114574,673.339101 23.5800009,673.560027 L23.5800009,673.560027 Z M29.8800012,651.600026 L36.9000015,653.580026 C37.5843485,653.74564 38.1681988,654.190009 38.5101407,654.805504 C38.8520826,655.421 38.9209278,656.151483 38.7000015,656.820026 L35.8200014,666.180026 C35.4674868,667.51862 34.101253,668.322287 32.7600013,667.980027 L25.740001,666.000026 C25.055654,665.834413 24.4718037,665.390044 24.1298618,664.774548 C23.7879199,664.159053 23.7190747,663.42857 23.940001,662.760026 L26.6400011,653.400026 C27.0725993,652.03643 28.4936885,651.246936 29.8800012,651.600026 Z M36.3600014,629.640025 L43.2000017,631.620025 C44.5385948,631.97254 45.3422618,633.338773 45.0000018,634.680025 L42.3000017,644.220026 C42.1343878,644.904373 41.6900188,645.488223 41.0745234,645.830165 C40.459028,646.172107 39.7285451,646.240952 39.0600016,646.020026 L32.0400013,644.040026 C30.7481455,643.536234 30.0479208,642.135785 30.4200012,640.800025 L33.1200013,631.260025 C33.3251615,630.608734 33.7858413,630.068581 34.3965919,629.763206 C35.0073425,629.457831 35.7158727,629.413379 36.3600014,629.640025 L36.3600014,629.640025 Z M42.6600017,607.500024 L49.680002,609.480024 C50.9718577,609.983815 51.6720825,611.384265 51.300002,612.720024 L48.6000019,622.260025 C48.3948417,622.911316 47.934162,623.451468 47.3234114,623.756844 C46.7126608,624.062219 46.0041306,624.106671 45.3600018,623.880025 L38.5200015,621.900025 C37.1814084,621.54751 36.3777415,620.181276 36.7200015,618.840025 L39.4200016,609.300024 C39.5856155,608.615677 40.0299844,608.031827 40.6454798,607.689885 C41.2609752,607.347943 41.9914582,607.279098 42.6600017,607.500024 L42.6600017,607.500024 Z M48.9600019,585.540023 L55.9800022,587.520023 C56.6643493,587.685637 57.2481996,588.130006 57.5901415,588.745502 C57.9320834,589.360997 58.0009285,590.09148 57.7800023,590.760023 L55.0800022,600.120024 C54.647404,601.48362 53.2263147,602.273114 51.8400021,601.920024 L44.8200018,599.940024 C44.1356547,599.77441 43.5518044,599.330041 43.2098625,598.714546 C42.8679206,598.09905 42.7990755,597.368567 43.0200017,596.700024 L45.7200018,587.340023 C46.1526,585.976427 47.5736893,585.186933 48.9600019,585.540023 L48.9600019,585.540023 Z M55.4400022,563.580022 L62.2800025,565.560022 C62.9643495,565.725636 63.5481998,566.170005 63.8901417,566.785501 C64.2320836,567.400996 64.3009288,568.131479 64.0800025,568.800023 L61.3800024,578.160023 C61.2143885,578.84437 60.7700196,579.42822 60.1545242,579.770162 C59.5390288,580.112104 58.8085458,580.180949 58.1400023,579.960023 L51.120002,577.980023 C50.4687113,577.774863 49.9285583,577.314183 49.623183,576.703432 C49.3178077,576.092682 49.2733557,575.384152 49.500002,574.740023 L52.2000021,565.380022 C52.365616,564.695675 52.8099849,564.111825 53.4254803,563.769883 C54.0409758,563.427941 54.7714587,563.359096 55.4400022,563.580022 L55.4400022,563.580022 Z M61.7400025,541.620022 L68.7600027,543.600022 C69.3984742,543.763792 69.9382649,544.189246 70.2466688,544.771787 C70.5550727,545.354327 70.6034847,546.039923 70.3800028,546.660022 L67.6800027,556.200022 C67.5143888,556.884369 67.0700198,557.468219 66.4545244,557.810161 C65.839029,558.152103 65.1085461,558.220948 64.4400026,558.000022 L57.6000023,556.020022 C56.2364063,555.587424 55.4469122,554.166335 55.8000022,552.780022 L58.5000023,543.240022 C58.7051625,542.588731 59.1658423,542.048578 59.7765929,541.743203 C60.3873435,541.437827 61.0958737,541.393375 61.7400025,541.620022 L61.7400025,541.620022 Z M68.0400027,519.480021 L75.060003,521.460021 C76.423599,521.892619 77.213093,523.313708 76.8600031,524.700021 L74.1600029,534.240021 C73.6608523,535.547591 72.2939055,536.307006 70.9200028,536.040021 L63.9000025,533.880021 C62.6194956,533.453313 61.8508124,532.146551 62.1000025,530.820021 L64.8000026,521.280021 C65.2326008,519.916425 66.65369,519.126931 68.0400027,519.480021 L68.0400027,519.480021 Z M74.520003,497.52002 L81.3600032,499.50002 C82.0443503,499.665634 82.6282006,500.110003 82.9701425,500.725498 C83.3120844,501.340994 83.3809296,502.071476 83.1600033,502.74002 L80.4600032,512.10002 C80.2943893,512.784367 79.8500203,513.368218 79.2345249,513.71016 C78.6190295,514.052102 77.8885466,514.120947 77.2200031,513.90002 L70.2000028,511.92002 C69.548712,511.71486 69.008559,511.25418 68.7031837,510.64343 C68.3978084,510.032679 68.3533564,509.324149 68.5800027,508.68002 L71.2800028,499.32002 C71.4456168,498.635673 71.8899857,498.051822 72.5054811,497.709881 C73.1209765,497.367939 73.8514594,497.299094 74.520003,497.52002 L74.520003,497.52002 Z M80.8200032,475.560019 L87.8400035,477.540019 C88.4912943,477.745179 89.0314472,478.205859 89.3368226,478.81661 C89.6421979,479.42736 89.6866498,480.13589 89.4600036,480.780019 L86.7600034,490.140019 C86.5943895,490.824367 86.1500206,491.408217 85.5345252,491.750159 C84.9190298,492.092101 84.1885468,492.160946 83.5200033,491.94002 L76.680003,489.960019 C75.995656,489.794406 75.4118057,489.350037 75.0698638,488.734541 C74.7279219,488.119046 74.6590767,487.388563 74.880003,486.720019 L77.5800031,477.360019 C77.745617,476.675672 78.1899859,476.091822 78.8054814,475.74988 C79.4209768,475.407938 80.1514597,475.339093 80.8200032,475.560019 L80.8200032,475.560019 Z M87.1200035,453.600018 L94.1400037,455.580018 C94.8243508,455.745632 95.4082011,456.190001 95.750143,456.805496 C96.0920849,457.420992 96.1609301,458.151475 95.9400038,458.820018 L93.2400037,468.180019 C92.8074055,469.543615 91.3863162,470.333109 90.0000036,469.980019 L82.9800033,468.000019 C81.6724338,467.500868 80.913019,466.133921 81.1800032,464.760018 L83.8800033,455.220018 C84.3837946,453.928162 85.7842441,453.227938 87.1200035,453.600018 Z M93.6000037,431.460017 L100.440004,433.440017 C101.8036,433.872615 102.593094,435.293705 102.240004,436.680017 L99.540004,446.220018 C99.1074057,447.583614 97.6863165,448.373108 96.3000038,448.020018 L89.2800035,445.860018 C88.6415321,445.696247 88.1017414,445.270793 87.7933375,444.688253 C87.4849336,444.105712 87.4365216,443.420116 87.6600035,442.800018 L90.3600036,433.260017 C90.5256175,432.57567 90.9699865,431.99182 91.5854819,431.649878 C92.2009773,431.307936 92.9314602,431.239091 93.6000037,431.460017 L93.6000037,431.460017 Z M99.900004,409.500016 L106.920004,411.480016 C107.571295,411.685177 108.111448,412.145856 108.416823,412.756607 C108.722199,413.367358 108.766651,414.075888 108.540004,414.720016 L105.840004,424.080017 C105.67439,424.764364 105.230021,425.348214 104.614526,425.690156 C103.999031,426.032098 103.268548,426.100943 102.600004,425.880017 L95.7600038,423.900017 C95.0756568,423.734403 94.4918064,423.290034 94.1498645,422.674539 C93.8079226,422.059043 93.7390775,421.32856 93.9600037,420.660017 L96.6600038,411.300016 C96.8256178,410.615669 97.2699867,410.031819 97.8854821,409.689877 C98.5009775,409.347935 99.2314604,409.27909 99.900004,409.500016 L99.900004,409.500016 Z M106.200004,387.540015 L113.220004,389.520015 C113.904352,389.685629 114.488202,390.129998 114.830144,390.745494 C115.172086,391.360989 115.240931,392.091472 115.020005,392.760016 L112.320004,402.120016 C111.887406,403.483612 110.466317,404.273106 109.080004,403.920016 L102.060004,401.940016 C100.696408,401.507418 99.906914,400.086329 100.260004,398.700016 L102.960004,389.340015 C103.392602,387.976419 104.813692,387.186925 106.200004,387.540015 L106.200004,387.540015 Z M112.680004,365.580015 L119.520005,367.560015 C120.204352,367.725629 120.788202,368.169997 121.130144,368.785493 C121.472086,369.400988 121.540931,370.131471 121.320005,370.800015 L118.620005,380.160015 C118.454391,380.844362 118.010022,381.428212 117.394526,381.770154 C116.779031,382.112096 116.048548,382.180941 115.380005,381.960015 L108.360004,379.980015 C107.068149,379.476224 106.367924,378.075774 106.740004,376.740015 L109.440004,367.200015 C109.645165,366.548724 110.105844,366.008571 110.716595,365.703196 C111.327346,365.39782 112.035876,365.353368 112.680004,365.580015 L112.680004,365.580015 Z M118.980005,343.440014 L126.000005,345.600014 C126.638476,345.763784 127.178267,346.189238 127.486671,346.771779 C127.795075,347.35432 127.843487,348.039915 127.620005,348.660014 L124.920005,358.200014 C124.493296,359.480521 123.186535,360.249204 121.860005,360.000014 L114.840005,357.840014 C113.501411,357.4875 112.697745,356.121266 113.040004,354.780014 L115.740005,345.240014 C115.905619,344.555667 116.349987,343.971816 116.965483,343.629874 C117.580978,343.287933 118.311461,343.219087 118.980005,343.440014 L118.980005,343.440014 Z M125.280005,321.480013 L132.300005,323.460013 C132.984352,323.625627 133.568203,324.069996 133.910145,324.685491 C134.252086,325.300987 134.320932,326.031469 134.100005,326.700013 L131.400005,336.240013 C130.896214,337.531869 129.495764,338.232094 128.160005,337.860013 L121.140005,335.880013 C119.776409,335.447415 118.986915,334.026326 119.340005,332.640013 L122.220005,323.280013 C122.572519,321.94142 123.938753,321.137753 125.280005,321.480013 L125.280005,321.480013 Z M131.760005,299.520012 L138.600006,301.500012 C139.284353,301.665626 139.868203,302.109995 140.210145,302.72549 C140.552087,303.340986 140.620932,304.071469 140.400006,304.740012 L137.700005,314.100012 C137.534392,314.78436 137.090023,315.36821 136.474527,315.710152 C135.859032,316.052094 135.128549,316.120939 134.460005,315.900013 L127.440005,313.920012 C126.788714,313.714852 126.248561,313.254173 125.943186,312.643422 C125.637811,312.032671 125.593359,311.324141 125.820005,310.680012 L128.520005,301.320012 C128.685619,300.635665 129.129988,300.051815 129.745483,299.709873 C130.360979,299.367931 131.091462,299.299086 131.760005,299.520012 L131.760005,299.520012 Z M138.060005,277.560011 L145.080006,279.540011 C145.731297,279.745171 146.27145,280.205851 146.576825,280.816602 C146.8822,281.427352 146.926652,282.135882 146.700006,282.780011 L144.000006,292.140012 C143.647491,293.478605 142.281257,294.282272 140.940006,293.940012 L133.920005,291.960012 C132.556409,291.527413 131.766915,290.106324 132.120005,288.720011 L134.820005,279.180011 C135.025166,278.52872 135.485845,277.988567 136.096596,277.683192 C136.707347,277.377817 137.415877,277.333365 138.060005,277.560011 L138.060005,277.560011 Z M144.360006,255.42001 L151.380006,257.58001 C152.718599,257.932525 153.522266,259.298759 153.180006,260.64001 L150.480006,270.180011 C149.980855,271.48758 148.613909,272.246995 147.240006,271.980011 L140.220006,269.820011 C138.939499,269.393302 138.170815,268.086541 138.420006,266.760011 L141.300006,257.22001 C141.65252,255.881417 143.018754,255.07775 144.360006,255.42001 L144.360006,255.42001 Z M150.840006,233.460009 L157.680006,235.440009 C158.364353,235.605623 158.948204,236.049992 159.290146,236.665488 C159.632087,237.280983 159.700933,238.011466 159.480006,238.680009 L156.780006,248.22001 C156.574846,248.871301 156.114166,249.411454 155.503416,249.716829 C154.892665,250.022204 154.184135,250.066656 153.540006,249.84001 L146.700006,247.86001 C146.015659,247.694396 145.431808,247.250027 145.089867,246.634532 C144.747925,246.019036 144.67908,245.288553 144.900006,244.62001 L147.600006,235.260009 C147.76562,234.575662 148.209989,233.991812 148.825484,233.64987 C149.44098,233.307928 150.171462,233.239083 150.840006,233.460009 L150.840006,233.460009 Z M157.140006,211.500008 L164.160007,213.480008 C164.811297,213.685169 165.35145,214.145848 165.656826,214.756599 C165.962201,215.36735 166.006653,216.07588 165.780007,216.720009 L163.080006,226.080009 C162.727492,227.418602 161.361258,228.222269 160.020006,227.880009 L153.000006,225.900009 C152.315659,225.734395 151.731809,225.290026 151.389867,224.674531 C151.047925,224.059035 150.97908,223.328552 151.200006,222.660009 L153.900006,213.300008 C154.06562,212.615661 154.509989,212.031811 155.125484,211.689869 C155.74098,211.347927 156.471463,211.279082 157.140006,211.500008 L157.140006,211.500008 Z M163.440006,189.540008 L170.460007,191.520008 C171.144354,191.685622 171.728204,192.12999 172.070146,192.745486 C172.412088,193.360981 172.480933,194.091464 172.260007,194.760008 L169.560007,204.120008 C169.127409,205.483604 167.706319,206.273098 166.320007,205.920008 L159.300006,203.940008 C157.992437,203.440857 157.233022,202.073911 157.500006,200.700008 L160.380006,191.160008 C160.543777,190.521536 160.969231,189.981745 161.551771,189.673342 C162.134312,189.364938 162.819908,189.316526 163.440006,189.540008 L163.440006,189.540008 Z M169.920007,167.400007 L176.760007,169.560007 C178.0986,169.912521 178.902267,171.278755 178.560007,172.620007 L175.860007,182.160007 C175.427409,183.523603 174.00632,184.313097 172.620007,183.960007 L165.780007,181.800007 C164.441413,181.447493 163.637747,180.081259 163.980007,178.740007 L166.680007,169.200007 C167.112605,167.836411 168.533694,167.046917 169.920007,167.400007 Z M176.220007,145.440006 L183.240007,147.420006 C184.547577,147.919157 185.306992,149.286103 185.040007,150.660006 L182.160007,160.200006 C181.996237,160.838478 181.570783,161.378269 180.988242,161.686672 C180.405701,161.995076 179.720106,162.043488 179.100007,161.820006 L172.080007,159.840006 C171.39566,159.674392 170.811809,159.230023 170.469868,158.614528 C170.127926,157.999033 170.059081,157.26855 170.280007,156.600006 L172.980007,147.240006 C173.145621,146.555659 173.58999,145.971808 174.205485,145.629867 C174.820981,145.287925 175.551463,145.21908 176.220007,145.440006 L176.220007,145.440006 Z M182.520007,123.480005 L189.540008,125.460005 C190.224355,125.625619 190.808205,126.069988 191.150147,126.685483 C191.492089,127.300979 191.560934,128.031462 191.340008,128.700005 L188.640007,138.060005 C188.207409,139.423602 186.78632,140.213096 185.400007,139.860006 L178.380007,137.880005 C177.016411,137.447407 176.226917,136.026318 176.580007,134.640005 L179.460007,125.280005 C179.812522,123.941412 181.178756,123.137745 182.520007,123.480005 L182.520007,123.480005 Z M189.000008,101.520004 L195.840008,103.500004 C196.524355,103.665618 197.108205,104.109987 197.450147,104.725482 C197.792089,105.340978 197.860934,106.071461 197.640008,106.740004 L194.940008,116.100005 C194.774394,116.784352 194.330025,117.368202 193.714529,117.710144 C193.099034,118.052086 192.368551,118.120931 191.700008,117.900005 L184.860007,115.920005 C183.496411,115.487406 182.706917,114.066317 183.060007,112.680004 L185.760007,103.140004 C185.965168,102.488713 186.425847,101.94856 187.036598,101.643185 C187.647349,101.33781 188.355879,101.293358 189.000008,101.520004 L189.000008,101.520004 Z M217.260009,29.8800012 L210.240008,27.9000011 C208.876412,27.4674029 208.086918,26.0463136 208.440008,24.660001 L211.140008,15.1200006 C211.345169,14.4687098 211.805848,13.9285568 212.416599,13.6231815 C213.02735,13.3178062 213.73588,13.2733542 214.380009,13.5000005 L221.400009,15.4800006 C222.763605,15.9125988 223.553099,17.3336881 223.200009,18.7200007 L220.320009,28.0800011 C219.967494,29.4185942 218.60126,30.2222612 217.260009,29.8800012 L217.260009,29.8800012 Z M210.780008,51.8400021 L203.940008,49.860002 C203.255661,49.6943881 202.671811,49.2500191 202.329869,48.6345237 C201.987927,48.0190283 201.919082,47.2885454 202.140008,46.6200019 L204.840008,37.2600015 C205.005622,36.5756544 205.449991,35.9918041 206.065486,35.6498622 C206.680982,35.3079203 207.411465,35.2390752 208.080008,35.4600014 L214.920009,37.4400015 C215.604356,37.6056154 216.188206,38.0499843 216.530148,38.6654798 C216.87209,39.2809752 216.940935,40.0114581 216.720009,40.6800016 L214.020009,50.040002 C213.854395,50.724349 213.410026,51.3081994 212.79453,51.6501413 C212.179035,51.9920831 211.448552,52.0609283 210.780008,51.8400021 L210.780008,51.8400021 Z M204.480008,73.8000029 L197.460008,71.8200029 C196.096412,71.3874046 195.306918,69.9663154 195.660008,68.5800027 L198.540008,59.2200024 C198.892523,57.8814092 200.258756,57.0777423 201.600008,57.4200023 L208.620008,59.4000024 C209.983604,59.8326006 210.773098,61.2536898 210.420008,62.6400025 L207.720008,72.1800029 C207.514848,72.8312936 207.054168,73.3714466 206.443418,73.6768219 C205.832667,73.9821972 205.124137,74.0266492 204.480008,73.8000029 L204.480008,73.8000029 Z M201.240008,94.1400037 C200.8133,95.4205107 199.506538,96.1891938 198.180008,95.9400038 L191.160008,93.7800037 C189.821414,93.4274891 189.017748,92.0612554 189.360008,90.7200036 L192.060008,81.1800032 C192.492606,79.8164072 193.913695,79.0269132 195.300008,79.3800032 L202.320008,81.5400032 C203.600515,81.9667117 204.369198,83.2734731 204.120008,84.6000034 L201.240008,94.1400037 Z M291.960012,151.020006 L257.58001,270.180011 C256.450322,273.928561 252.532375,276.087429 248.76001,275.040011 L167.760007,251.64001 C164.011457,250.510322 161.852588,246.592375 162.900006,242.82001 L197.460008,123.660005 C198.589696,119.911455 202.507643,117.752586 206.280008,118.800005 L287.100011,142.200006 C290.848561,143.329694 293.00743,147.247641 291.960012,151.020006 Z M346.140014,19.4400008 L339.120013,17.4600007 C338.468723,17.2548405 337.92857,16.7941608 337.623194,16.1834101 C337.317819,15.5726595 337.273367,14.8641293 337.500013,14.2200006 L340.200014,4.86000019 C340.365627,4.17565314 340.809996,3.59180282 341.425492,3.24986093 C342.040987,2.90791903 342.77147,2.83907388 343.440014,3.06000012 L350.280014,5.0400002 C350.964361,5.20561412 351.548211,5.64998306 351.890153,6.26547847 C352.232095,6.88097388 352.30094,7.6114568 352.080014,8.28000033 L349.380014,17.6400007 C349.2144,18.3243478 348.770031,18.9081981 348.154536,19.25014 C347.53904,19.5920819 346.808557,19.660927 346.140014,19.4400008 L346.140014,19.4400008 Z M339.840014,41.4000016 L332.820013,39.4200016 C332.135666,39.2543876 331.551816,38.8100187 331.209874,38.1945233 C330.867932,37.5790279 330.799087,36.848545 331.020013,36.1800014 L333.720013,26.8200011 C334.152611,25.456405 335.573701,24.666911 336.960013,25.020001 L343.980014,27.0000011 C344.664361,27.165615 345.248211,27.6099839 345.590153,28.2254793 C345.932095,28.8409748 346.00094,29.5714577 345.780014,30.2400012 L343.080014,39.7800016 C342.576222,41.0718573 341.175773,41.7720821 339.840014,41.4000016 L339.840014,41.4000016 Z M333.360013,63.5400025 L326.520013,61.3800024 C325.18142,61.0274878 324.377753,59.6612541 324.720013,58.3200023 L327.420013,48.7800019 C327.585627,48.0956549 328.029996,47.5118046 328.645491,47.1698627 C329.260987,46.8279208 329.99147,46.7590756 330.660013,46.9800019 L337.680013,49.140002 C338.318485,49.3037724 338.858276,49.7292264 339.166679,50.311767 C339.475083,50.8943077 339.523495,51.5799033 339.300013,52.2000021 L336.600013,61.7400025 C336.167415,63.1035985 334.746326,63.8930925 333.360013,63.5400025 L333.360013,63.5400025 Z M327.060013,85.5000034 L320.040013,83.5200033 C318.748157,83.016212 318.047932,81.6157625 318.420013,80.2800032 L321.120013,70.7400028 C321.325173,70.088712 321.785853,69.5485591 322.396603,69.2431837 C323.007354,68.9378084 323.715884,68.8933565 324.360013,69.1200027 L331.200013,71.1000028 C331.88436,71.2656167 332.468211,71.7099857 332.810152,72.3254811 C333.152094,72.9409765 333.220939,73.6714594 333.000013,74.340003 L330.300013,83.7000033 C330.134399,84.3843504 329.69003,84.9682007 329.074535,85.3101426 C328.459039,85.6520845 327.728557,85.7209296 327.060013,85.5000034 L327.060013,85.5000034 Z M320.760013,107.460004 L313.740012,105.480004 C313.055665,105.31439 312.471815,104.870021 312.129873,104.254526 C311.787931,103.639031 311.719086,102.908548 311.940012,102.240004 L314.640013,92.8800037 C315.072611,91.5164077 316.4937,90.7269136 317.880013,91.0800036 L324.900013,93.0600037 C325.58436,93.2256176 326.16821,93.6699866 326.510152,94.285482 C326.852094,94.9009774 326.920939,95.6314603 326.700013,96.3000038 L324.000013,105.660004 C323.567415,107.0236 322.146325,107.813094 320.760013,107.460004 L320.760013,107.460004 Z M314.280012,129.420005 L307.440012,127.440005 C306.755665,127.274391 306.171815,126.830022 305.829873,126.214527 C305.487931,125.599031 305.419086,124.868548 305.640012,124.200005 L308.340012,114.840005 C308.505626,114.155658 308.949995,113.571807 309.565491,113.229865 C310.180986,112.887923 310.911469,112.819078 311.580012,113.040004 L318.600013,115.020005 C319.251303,115.225165 319.791456,115.685845 320.096832,116.296595 C320.402207,116.907346 320.446659,117.615876 320.220013,118.260005 L317.520013,127.800005 C317.314852,128.451296 316.854173,128.991449 316.243422,129.296824 C315.632671,129.602199 314.924141,129.646651 314.280012,129.420005 L314.280012,129.420005 Z M307.980012,151.560006 L300.960012,149.400006 C300.32154,149.236235 299.78175,148.810782 299.473346,148.228241 C299.164942,147.6457 299.11653,146.960105 299.340012,146.340006 L302.040012,136.800005 C302.392527,135.461412 303.75876,134.657745 305.100012,135.000005 L312.120012,137.160005 C313.458606,137.51252 314.262272,138.878754 313.920012,140.220006 L311.220012,149.760006 C310.787414,151.123602 309.366325,151.913096 307.980012,151.560006 L307.980012,151.560006 Z M301.680012,173.520007 L294.660012,171.540007 C293.296416,171.107409 292.506922,169.686319 292.860012,168.300007 L295.560012,158.760006 C296.063803,157.468151 297.464253,156.767926 298.800012,157.140006 L305.820012,159.120006 C307.183608,159.552605 307.973102,160.973694 307.620012,162.360006 L304.920012,171.720007 C304.487414,173.083603 303.066325,173.873097 301.680012,173.520007 L301.680012,173.520007 Z M295.200012,195.480008 L288.360011,193.500008 C287.675664,193.334394 287.091814,192.890025 286.749872,192.274529 C286.40793,191.659034 286.339085,190.928551 286.560011,190.260008 L289.260011,180.900007 C289.425625,180.21566 289.869994,179.63181 290.48549,179.289868 C291.100985,178.947926 291.831468,178.879081 292.500012,179.100007 L299.520012,181.080007 C300.171303,181.285167 300.711456,181.745847 301.016831,182.356598 C301.322206,182.967348 301.366658,183.675879 301.140012,184.320007 L298.440012,193.680008 C298.274398,194.364355 297.830029,194.948205 297.214534,195.290147 C296.599038,195.632089 295.868555,195.700934 295.200012,195.480008 L295.200012,195.480008 Z M288.900011,217.440009 L281.880011,215.460009 C281.22872,215.254848 280.688567,214.794169 280.383192,214.183418 C280.077817,213.572667 280.033365,212.864137 280.260011,212.220008 L282.960011,202.860008 C283.312526,201.521415 284.67876,200.717748 286.020011,201.060008 L293.040012,203.040008 C293.724359,203.205622 294.308209,203.649991 294.650151,204.265486 C294.992093,204.880982 295.060938,205.611465 294.840012,206.280008 L292.140012,215.820009 C291.63622,217.111864 290.235771,217.812089 288.900011,217.440009 Z M282.600011,239.58001 L275.580011,237.420009 C274.241418,237.067495 273.437751,235.701261 273.780011,234.360009 L276.480011,224.820009 C276.912609,223.456413 278.333698,222.666919 279.720011,223.020009 L286.740011,225.180009 C288.020518,225.606717 288.789201,226.913479 288.540011,228.240009 L285.840011,237.780009 C285.340861,239.087579 283.973914,239.846994 282.600011,239.58001 Z M276.120011,261.54001 L269.280011,259.56001 C267.916415,259.127412 267.126921,257.706323 267.480011,256.32001 L270.180011,246.78001 C270.385171,246.128719 270.845851,245.588566 271.456601,245.283191 C272.067352,244.977815 272.775882,244.933363 273.420011,245.16001 L280.440011,247.14001 C281.091302,247.34517 281.631455,247.80585 281.93683,248.4166 C282.242206,249.027351 282.286658,249.735881 282.060011,250.38001 L279.360011,259.74001 C279.194397,260.424357 278.750028,261.008208 278.134533,261.35015 C277.519037,261.692091 276.788555,261.760937 276.120011,261.54001 L276.120011,261.54001 Z M269.820011,283.500011 L262.80001,281.520011 C262.14872,281.314851 261.608567,280.854171 261.303191,280.243421 C260.997816,279.63267 260.953364,278.92414 261.18001,278.280011 L263.88001,268.920011 C264.232525,267.581418 265.598759,266.777751 266.940011,267.120011 L273.960011,269.100011 C274.644358,269.265625 275.228208,269.709994 275.57015,270.325489 C275.912092,270.940984 275.980937,271.671467 275.760011,272.340011 L273.060011,281.700011 C272.894397,282.384358 272.450028,282.968209 271.834533,283.31015 C271.219037,283.652092 270.488554,283.720938 269.820011,283.500011 L269.820011,283.500011 Z M263.52001,305.460012 L256.50001,303.480012 C255.815663,303.314398 255.231813,302.870029 254.889871,302.254534 C254.547929,301.639038 254.479084,300.908555 254.70001,300.240012 L257.40001,290.880012 C257.832608,289.516416 259.253698,288.726921 260.64001,289.080011 L267.660011,291.060012 C269.023607,291.49261 269.813101,292.913699 269.460011,294.300012 L266.580011,303.660012 C266.227496,304.998605 264.861262,305.802272 263.52001,305.460012 L263.52001,305.460012 Z M257.04001,327.600013 L250.20001,325.440013 C248.861417,325.087498 248.05775,323.721265 248.40001,322.380013 L251.10001,312.840012 C251.265624,312.155665 251.709993,311.571815 252.325488,311.229873 C252.940984,310.887931 253.671467,310.819086 254.34001,311.040012 L261.36001,313.020012 C262.651866,313.523804 263.352091,314.924253 262.98001,316.260013 L260.28001,325.800013 C259.847412,327.163609 258.426323,327.953103 257.04001,327.600013 Z M250.74001,349.560014 L243.72001,347.580014 C242.41244,347.080863 241.653025,345.713916 241.92001,344.340014 L244.80001,334.800013 C244.96378,334.161542 245.389234,333.621751 245.971775,333.313347 C246.554316,333.004943 247.239911,332.956531 247.86001,333.180013 L254.88001,335.160013 C256.218603,335.512528 257.02227,336.878762 256.68001,338.220013 L253.98001,347.760014 C253.814396,348.444361 253.370027,349.028211 252.754532,349.370153 C252.139036,349.712095 251.408553,349.78094 250.74001,349.560014 L250.74001,349.560014 Z M244.44001,371.520015 L237.420009,369.540015 C236.735662,369.374401 236.151812,368.930032 235.80987,368.314536 C235.467928,367.699041 235.399083,366.968558 235.620009,366.300015 L238.320009,356.940014 C238.752608,355.576418 240.173697,354.786924 241.56001,355.140014 L248.58001,357.120014 C249.943606,357.552612 250.7331,358.973702 250.38001,360.360014 L247.50001,369.720015 C247.147495,371.058608 245.781261,371.862275 244.44001,371.520015 L244.44001,371.520015 Z M237.960009,393.480016 L231.120009,391.500016 C230.435662,391.334402 229.851812,390.890033 229.50987,390.274537 C229.167928,389.659042 229.099083,388.928559 229.320009,388.260015 L232.020009,378.900015 C232.185623,378.215668 232.629992,377.631818 233.245487,377.289876 C233.860983,376.947934 234.591466,376.879089 235.260009,377.100015 L242.28001,379.080015 C242.9313,379.285175 243.471453,379.745855 243.776829,380.356606 C244.082204,380.967356 244.126656,381.675886 243.90001,382.320015 L241.20001,391.680016 C241.034396,392.364363 240.590027,392.948213 239.974531,393.290155 C239.359036,393.632097 238.628553,393.700942 237.960009,393.480016 L237.960009,393.480016 Z M231.660009,415.620017 L224.640009,413.460016 C223.359502,413.033308 222.590819,411.726547 222.840009,410.400016 L225.720009,400.860016 C226.072524,399.521423 227.438757,398.717756 228.780009,399.060016 L235.800009,401.040016 C237.163605,401.472614 237.953099,402.893703 237.600009,404.280016 L234.900009,413.820016 C234.467411,415.183612 233.046322,415.973107 231.660009,415.620017 L231.660009,415.620017 Z M225.360009,437.580017 L218.340009,435.600017 C216.976413,435.167419 216.186919,433.74633 216.540009,432.360017 L219.240009,422.820017 C219.445169,422.168726 219.905849,421.628573 220.516599,421.323198 C221.12735,421.017822 221.83588,420.97337 222.480009,421.200017 L229.500009,423.180017 C230.780516,423.606725 231.549199,424.913487 231.300009,426.240017 L228.420009,435.780017 C228.067494,437.11861 226.701261,437.922277 225.360009,437.580017 L225.360009,437.580017 Z M218.880009,459.540018 L212.040008,457.560018 C211.355661,457.394404 210.771811,456.950035 210.429869,456.33454 C210.087927,455.719045 210.019082,454.988562 210.240008,454.320018 L212.940008,444.960018 C213.105622,444.275671 213.549991,443.69182 214.165487,443.349878 C214.780982,443.007937 215.511465,442.939091 216.180009,443.160018 L223.020009,445.140018 C223.704356,445.305632 224.288206,445.750001 224.630148,446.365496 C224.97209,446.980991 225.040935,447.711474 224.820009,448.380018 L222.120009,457.740018 C221.954395,458.424365 221.510026,459.008216 220.894531,459.350157 C220.279035,459.692099 219.548552,459.760945 218.880009,459.540018 L218.880009,459.540018 Z M212.580008,481.500019 L205.560008,479.520019 C204.196412,479.087421 203.406918,477.666332 203.760008,476.280019 L206.640008,466.920019 C206.992523,465.581425 208.358757,464.777759 209.700008,465.120018 L216.720009,467.100019 C217.404356,467.265632 217.988206,467.710001 218.330148,468.325497 C218.67209,468.940992 218.740935,469.671475 218.520009,470.340019 L215.820009,479.700019 C215.654395,480.384366 215.210026,480.968216 214.59453,481.310158 C213.979035,481.6521 213.248552,481.720945 212.580008,481.500019 L212.580008,481.500019 Z M206.280008,503.46002 L199.260008,501.48002 C197.921415,501.127505 197.117748,499.761272 197.460008,498.42002 L200.160008,488.880019 C200.325622,488.195672 200.769991,487.611822 201.385486,487.26988 C202.000982,486.927938 202.731465,486.859093 203.400008,487.080019 L210.420008,489.060019 C211.727578,489.55917 212.486993,490.926117 212.220008,492.30002 L209.340008,501.84002 C209.176238,502.478491 208.750784,503.018282 208.168243,503.326686 C207.585703,503.63509 206.900107,503.683502 206.280008,503.46002 L206.280008,503.46002 Z M199.800008,525.600021 L192.960008,523.620021 C191.596412,523.187423 190.806918,521.766333 191.160008,520.380021 L193.860008,510.84002 C194.292606,509.476424 195.713695,508.68693 197.100008,509.04002 L203.940008,511.20002 C205.278601,511.552535 206.082268,512.918769 205.740008,514.26002 L203.040008,523.800021 C202.874394,524.484368 202.430025,525.068218 201.81453,525.41016 C201.199034,525.752102 200.468551,525.820947 199.800008,525.600021 Z M193.500008,547.560022 L186.480007,545.580022 C185.116411,545.147423 184.326917,543.726334 184.680007,542.340022 L187.560007,532.980021 C187.912522,531.641428 189.278756,530.837761 190.620008,531.180021 L197.640008,533.160021 C198.324355,533.325635 198.908205,533.770004 199.250147,534.385499 C199.592089,535.000995 199.660934,535.731478 199.440008,536.400021 L196.740008,545.760022 C196.574394,546.444369 196.130025,547.028219 195.51453,547.370161 C194.899034,547.712103 194.168551,547.780948 193.500008,547.560022 Z M187.200007,569.520023 L180.180007,567.540023 C179.49566,567.374409 178.91181,566.93004 178.569868,566.314544 C178.227926,565.699049 178.159081,564.968566 178.380007,564.300022 L181.080007,554.940022 C181.245621,554.255675 181.68999,553.671825 182.305485,553.329883 C182.920981,552.987941 183.651464,552.919096 184.320007,553.140022 L191.340008,555.120022 C192.703604,555.55262 193.493098,556.97371 193.140008,558.360022 L190.260008,567.720023 C189.907493,569.058616 188.541259,569.862283 187.200007,569.520023 Z M180.720007,591.480024 L173.880007,589.500023 C172.541414,589.147509 171.737747,587.781275 172.080007,586.440023 L174.780007,576.900023 C174.945621,576.215676 175.38999,575.631826 176.005485,575.289884 C176.620981,574.947942 177.351464,574.879097 178.020007,575.100023 L184.860007,577.080023 C186.223603,577.512621 187.013097,578.93371 186.660007,580.320023 L183.960007,589.860023 C183.754847,590.511314 183.294167,591.051467 182.683417,591.356843 C182.072666,591.662218 181.364136,591.70667 180.720007,591.480024 Z M174.420007,613.620024 L167.400007,611.640024 C166.092437,611.140874 165.333022,609.773927 165.600007,608.400024 L168.480007,598.860024 C168.906715,597.579517 170.213477,596.810834 171.540007,597.060024 L178.560007,599.220024 C179.8986,599.572538 180.702267,600.938772 180.360007,602.280024 L177.660007,611.820024 C177.494393,612.504371 177.050024,613.088222 176.434529,613.430164 C175.819033,613.772105 175.08855,613.840951 174.420007,613.620024 Z M168.120007,635.580025 L161.100006,633.600025 C160.415659,633.434411 159.831809,632.990042 159.489867,632.374547 C159.147925,631.759051 159.07908,631.028569 159.300006,630.360025 L162.000006,621.000025 C162.16562,620.315678 162.609989,619.731827 163.225485,619.389885 C163.84098,619.047944 164.571463,618.979098 165.240007,619.200025 L172.260007,621.180025 C173.623603,621.612623 174.413097,623.033712 174.060007,624.420025 L171.180007,633.780025 C170.827492,635.118618 169.461258,635.922285 168.120007,635.580025 L168.120007,635.580025 Z M161.640006,657.540026 L154.800006,655.560026 C154.115659,655.394412 153.531809,654.950043 153.189867,654.334548 C152.847925,653.719052 152.77908,652.988569 153.000006,652.320026 L155.700006,642.960026 C155.86562,642.275678 156.309989,641.691828 156.925484,641.349886 C157.54098,641.007944 158.271463,640.939099 158.940006,641.160025 L165.780007,643.140026 C166.464354,643.305639 167.048204,643.750008 167.390146,644.365504 C167.732088,644.980999 167.800933,645.711482 167.580007,646.380026 L164.880007,655.740026 C164.714393,656.424373 164.270024,657.008223 163.654528,657.350165 C163.039033,657.692107 162.30855,657.760952 161.640006,657.540026 L161.640006,657.540026 Z M155.340006,679.500027 L148.320006,677.520027 C146.95641,677.087429 146.166916,675.666339 146.520006,674.280027 L149.400006,664.920026 C149.752521,663.581433 151.118754,662.777766 152.460006,663.120026 L159.480006,665.100026 C160.843602,665.532625 161.633096,666.953714 161.280006,668.340027 L158.580006,677.880027 C158.374846,678.531318 157.914166,679.071471 157.303416,679.376846 C156.692665,679.682221 155.984135,679.726673 155.340006,679.500027 L155.340006,679.500027 Z M154.980006,690.300027 L152.100006,699.840028 C151.747491,701.178621 150.381258,701.982288 149.040006,701.640028 L142.020006,699.480028 C140.681413,699.127513 139.877746,697.761279 140.220006,696.420028 L142.920006,686.880027 C143.352604,685.516431 144.773693,684.726937 146.160006,685.080027 L153.180006,687.240027 C154.460513,687.666736 155.229196,688.973497 154.980006,690.300027 L154.980006,690.300027 Z" id="Shape"></path>
                <g id="Group" opacity="0.6" transform="translate(23.400001, 0.000000)">
                    <path d="M103.320004,722.520029 L0.900000036,722.520029 L11.7000005,685.080027 C12.8296888,681.331477 16.7476359,679.172608 20.5200008,680.220027 L101.340004,703.620028 C105.088554,704.749716 107.247423,708.667663 106.200004,712.440028 L103.320004,722.520029 Z" id="Path"></path>
                    <rect id="Rectangle" transform="translate(82.172883, 619.458865) rotate(-73.739795) translate(-82.172883, -619.458865) " x="12.9628805" y="570.255863" width="138.420006" height="98.4060039" rx="7.20000029"></rect>
                    <rect id="Rectangle" transform="translate(122.918196, 477.219438) rotate(-73.900000) translate(-122.918196, -477.219438) " x="53.7081932" y="428.016436" width="138.420006" height="98.4060039" rx="7.20000029"></rect>
                    <rect id="Rectangle" transform="translate(163.416048, 337.092899) rotate(-73.900000) translate(-163.416048, -337.092899) " x="94.206045" y="287.889897" width="138.420006" height="98.4060039" rx="7.20000029"></rect>
                    <rect id="Rectangle" transform="translate(204.086840, 196.836277) rotate(-73.900000) translate(-204.086840, -196.836277) " x="134.876837" y="147.633275" width="138.420006" height="98.4060039" rx="7.20000029"></rect>
                    <path d="M209.700008,0 L298.080012,0 L304.200012,1.80000007 C306.029676,2.30107121 307.578659,3.52131065 308.494178,5.18280696 C309.409696,6.84430326 309.613803,8.80559698 309.060012,10.6200004 L274.680011,129.780005 C273.550323,133.528555 269.632375,135.687424 265.860011,134.640005 L185.040007,111.240004 C181.291457,110.110316 179.132589,106.192369 180.180007,102.420004 L209.700008,0 Z" id="Path"></path>
                </g>
            </g>
        </g>
    </g>
</svg>