<?xml version="1.0" encoding="UTF-8"?>
<svg width="18px" height="18px" viewBox="0 0 18 18" version="1.1" xmlns="http://www.w3.org/2000/svg" xmlns:xlink="http://www.w3.org/1999/xlink">
    <!-- Generator: Sketch 58 (84663) - https://sketch.com -->
    <title>ant-design:play-circle-outlined</title>
    <desc>Created with Sketch.</desc>
    <g id="Landing-Page---We-Were-Soldiers" stroke="none" stroke-width="1" fill="none" fill-rule="evenodd">
        <g id="Home" transform="translate(-168.000000, -370.000000)" fill="#FFCC33" fill-rule="nonzero">
            <g id="ant-design:play-circle-outlined" transform="translate(168.000000, 350.000000)">
                <path d="M8.96000093,20 C4.01200042,20 -4.12114787e-13,24.0120004 -4.12114787e-13,28.9600009 C-4.12114787e-13,33.9080015 4.01200042,37.9200019 8.96000093,37.9200019 C13.9080015,37.9200019 17.9200019,33.9080015 17.9200019,28.9600009 C17.9200019,24.0120004 13.9080015,20 8.96000093,20 Z M8.96000093,36.4000017 C4.85200051,36.4000017 1.52000016,33.0680014 1.52000016,28.9600009 C1.52000016,24.8520005 4.85200051,21.5200002 8.96000093,21.5200002 C13.0680014,21.5200002 16.4000017,24.8520005 16.4000017,28.9600009 C16.4000017,33.0680014 13.0680014,36.4000017 8.96000093,36.4000017 Z" id="Shape"></path>
                <path d="M13.1080014,28.7020009 L7.18600075,24.4020005 C7.08913965,24.330998 6.9605403,24.3206212 6.85354802,24.3751746 C6.74655573,24.429728 6.67942417,24.5399043 6.67999701,24.6600005 L6.67999701,33.2600014 C6.67999701,33.5220014 6.97600073,33.6700014 7.18600075,33.5180014 L13.1080014,29.218001 C13.190946,29.1582348 13.2400982,29.062235 13.2400982,28.9600009 C13.2400982,28.8577668 13.190946,28.7617671 13.1080014,28.7020009 L13.1080014,28.7020009 Z M7.95600083,31.3820012 L7.95600083,26.5380007 L11.2900012,28.9600009 L7.95600083,31.3820012 L7.95600083,31.3820012 Z" id="Shape"></path>
            </g>
        </g>
    </g>
</svg>