<?xml version="1.0" encoding="UTF-8"?>
<svg width="21px" height="21px" viewBox="0 0 21 21" version="1.1" xmlns="http://www.w3.org/2000/svg" xmlns:xlink="http://www.w3.org/1999/xlink">
    <!-- Generator: Sketch 58 (84663) - https://sketch.com -->
    <title>ant-design:star-filled copy 2</title>
    <desc>Created with Sketch.</desc>
    <g id="Landing-Page---We-Were-Soldiers" stroke="none" stroke-width="1" fill="none" fill-rule="evenodd">
        <g id="Home" transform="translate(-970.000000, -790.000000)">
            <g id="Group-6" transform="translate(918.000000, 786.000000)">
                <g id="ant-design:star-filled-copy-2" transform="translate(50.000000, 3.000000)">
                    <rect id="ViewBox" x="0" y="0" width="24.5759999" height="24.5759999"></rect>
                    <path d="M21.7943999,8.47439996 L15.7007999,7.58879996 L12.9767999,2.06639999 C12.9023999,1.91519999 12.7799999,1.79279999 12.6287999,1.71839999 C12.2495999,1.53119999 11.7887999,1.68719999 11.5991999,2.06639999 L8.87519996,7.58879996 L2.78159999,8.47439996 C2.61359999,8.49839996 2.45999999,8.57759996 2.34239999,8.69759996 C2.04635756,9.00187936 2.05280244,9.4884681 2.35679999,9.78479995 L6.76559997,14.0831999 L5.72399997,20.1527999 C5.67416933,20.4408416 5.79244423,20.7321581 6.02896432,20.903941 C6.26548441,21.0757239 6.57909908,21.0980859 6.83759997,20.9615999 L12.2879999,18.0959999 L17.7383999,20.9615999 C17.8871999,21.0407999 18.0599999,21.0671999 18.2255999,21.0383999 C18.6431999,20.9663999 18.9239999,20.5703999 18.8519999,20.1527999 L17.8103999,14.0831999 L22.2191999,9.78479995 C22.3391999,9.66719995 22.4183999,9.51359995 22.4423999,9.34559995 C22.5071999,8.92559996 22.2143999,8.53679996 21.7943999,8.47439996 Z" id="Path" fill="#FFCC33" fill-rule="nonzero"></path>
                </g>
            </g>
        </g>
    </g>
</svg>