<?xml version="1.0" encoding="UTF-8"?>
<svg width="18px" height="15px" viewBox="0 0 18 15" version="1.1" xmlns="http://www.w3.org/2000/svg" xmlns:xlink="http://www.w3.org/1999/xlink">
    <!-- Generator: Sketch 58 (84663) - https://sketch.com -->
    <title>twitter - FontAwesome</title>
    <desc>Created with Sketch.</desc>
    <g id="Landing-Page---We-Were-Soldiers" stroke="none" stroke-width="1" fill="none" fill-rule="evenodd">
        <g id="Log-In" transform="translate(-650.000000, -661.000000)" stroke="#FFFFFF" stroke-width="0.879999967">
            <g id="icons" transform="translate(626.000000, 660.000000)">
                <path d="M41.3599984,3.32749987 C40.8861213,4.00125322 40.3132336,4.57530995 39.6413183,5.04968731 C39.6483911,5.14593779 39.6519274,5.29031134 39.6519274,5.48281229 C39.6519274,6.37656673 39.5175464,7.26858902 39.2487802,8.15890594 C38.9800141,9.04922286 38.5715664,9.90343303 38.023425,10.7215621 C37.4752835,11.5396912 36.8228281,12.2632776 36.0660392,12.8923433 C35.3092504,13.5214089 34.3968737,14.0232788 33.328882,14.3979682 C32.2608902,14.7726576 31.1186513,14.9599994 29.9021308,14.9599994 C27.9854039,14.9599994 26.2313775,14.4615669 24.6399991,13.464687 C24.8875468,13.4921871 25.1633816,13.505937 25.4675117,13.505937 C27.0588902,13.505937 28.4769639,13.0315667 29.7217755,12.082812 C28.9791322,12.069062 28.3142997,11.8473454 27.7272578,11.4176558 C27.140216,10.9879662 26.7370728,10.4396904 26.5178163,9.77281213 C26.7512184,9.8071873 26.9669354,9.82437463 27.1649736,9.82437463 C27.4691037,9.82437463 27.7696929,9.78656251 28.0667502,9.71093713 C27.2745974,9.55281135 26.6186057,9.16953394 26.0987554,8.56109343 C25.5789051,7.95265291 25.3189838,7.24625375 25.3189838,6.44187476 L25.3189838,6.40062476 C25.7999337,6.66187605 26.3162399,6.80281214 26.8679178,6.82343724 C26.4011134,6.52093574 26.0297973,6.12562721 25.7539584,5.63749979 C25.4781195,5.14937236 25.3402021,4.62000268 25.3402021,4.04937485 C25.3402021,3.44437184 25.4958012,2.88406497 25.8070041,2.36843741 C26.6628121,3.39281749 27.7042652,4.21265301 28.9313948,4.82796857 C30.1585245,5.44328412 31.4722761,5.78531194 32.8726891,5.85406228 C32.8161068,5.59281098 32.787816,5.33843854 32.787816,5.09093731 C32.787816,4.16968274 33.1220005,3.38422187 33.7903794,2.73453115 C34.4587584,2.08484042 35.2668129,1.75999993 36.2145672,1.75999993 C37.2047582,1.75999993 38.0393353,2.11062141 38.7183234,2.81187489 C39.4892579,2.66749918 40.2142083,2.39937687 40.8931964,2.00749992 C40.6315031,2.79812885 40.1293423,3.40999771 39.386699,3.84312485 C40.0444688,3.77437451 40.7022287,3.60250124 41.3599984,3.32749987 Z" id="twitter---FontAwesome"></path>
            </g>
        </g>
    </g>
</svg>